<svg version="1.1" id="Layer_1" xmlns="http://www.w3.org/2000/svg" xmlns:xlink="http://www.w3.org/1999/xlink" x="0px" y="0px"
	 width="100%" viewBox="0 0 1024 1024" enable-background="new 0 0 1024 1024" xml:space="preserve">
<path fill="#000000" opacity="1.000000" stroke="none" 
	d="
M626.000000,403.295959 
	C598.834106,403.298950 572.168152,403.299988 545.502258,403.304901 
	C537.720886,403.306335 537.715576,403.311371 537.713501,395.286163 
	C537.711121,386.286407 537.725952,377.286682 537.721497,368.286926 
	C537.717773,360.718445 537.710266,360.713348 545.548523,360.712860 
	C587.547363,360.710205 629.546143,360.710754 671.544983,360.708893 
	C678.544739,360.708588 685.546082,360.614624 692.543640,360.736389 
	C695.811157,360.793243 697.333191,359.509613 696.659424,356.270233 
	C686.778625,308.766754 670.316040,264.872131 628.782471,235.189346 
	C610.276245,221.963440 589.568848,215.045898 566.616394,215.209991 
	C548.618652,215.338669 530.618835,215.171417 512.619934,215.132874 
	C505.549591,215.117722 505.314301,215.307510 505.315887,222.424026 
	C505.338257,323.421051 505.370575,424.418091 505.413727,525.415100 
	C505.415222,528.911499 505.176697,532.468323 505.723206,535.889404 
	C506.439789,540.375610 504.574554,541.377258 500.550781,541.355835 
	C479.385284,541.243347 458.218933,541.309082 437.052856,541.303589 
	C421.053345,541.299377 405.044983,541.622681 389.055847,541.209290 
	C324.817993,539.548523 277.992279,497.441467 265.647797,437.488434 
	C263.494263,427.029419 262.657135,416.465820 262.668518,405.774994 
	C262.748688,330.443817 262.714935,255.112564 262.716949,179.781326 
	C262.717163,171.694748 262.715454,171.692032 271.027008,171.692886 
	C281.360046,171.693970 291.694916,171.813339 302.025177,171.646347 
	C305.959198,171.582748 307.172272,173.062164 307.171570,176.945938 
	C307.156891,256.440399 306.660919,335.941620 307.564606,415.426636 
	C308.040710,457.304077 339.284912,491.001068 379.302185,495.673706 
	C402.674133,498.402740 426.230499,496.438568 449.701111,496.752075 
	C463.727905,496.939423 462.716064,498.608154 462.716095,483.524658 
	C462.716248,382.694153 462.710754,281.863617 462.708496,181.033112 
	C462.708435,179.199951 462.777008,177.365265 462.723175,175.533966 
	C462.641266,172.748093 464.040070,171.612656 466.709045,171.717712 
	C467.873566,171.763565 469.041901,171.706451 470.208496,171.706421 
	C502.540924,171.705582 534.876526,171.995499 567.205078,171.639343 
	C617.189514,171.088669 656.460632,192.268524 687.531677,230.212234 
	C707.389587,254.462524 719.805298,282.575928 728.276245,312.464630 
	C739.299744,351.359589 746.079285,391.217133 754.256042,430.752075 
	C760.884094,462.798920 767.216858,494.906860 773.668335,526.990173 
	C774.028015,528.778931 774.219482,530.601624 774.583862,532.389221 
	C776.404480,541.320129 776.415588,541.317383 767.103699,541.313721 
	C756.937317,541.309692 746.769348,541.203674 736.605408,541.358093 
	C732.956909,541.413513 731.367920,540.178223 730.629456,536.434814 
	C723.233032,498.940826 715.634033,461.486847 708.116638,424.016632 
	C707.103638,418.967316 706.008423,413.918701 705.353516,408.818085 
	C704.800659,404.512909 702.834412,403.172821 698.492004,403.208557 
	C674.496033,403.405853 650.497620,403.298462 626.000000,403.295959 
z"/>
<path fill="#000000" opacity="1.000000" stroke="none" 
	d="
M549.074036,739.316101 
	C528.274109,740.512329 520.302002,758.763367 522.652527,774.825928 
	C524.811462,789.578857 533.127747,797.636841 547.495300,800.368225 
	C556.220703,802.026978 567.272644,796.896301 571.341003,789.217041 
	C572.332520,787.345459 573.504578,785.429443 572.393799,782.285034 
	C567.382385,782.285034 562.111450,782.135925 556.853577,782.334229 
	C552.954407,782.481384 551.581055,780.940369 551.649170,777.056030 
	C551.878601,763.971436 550.505615,765.855896 562.752869,765.746643 
	C571.245728,765.670898 579.739807,765.742310 588.233337,765.736511 
	C590.699524,765.734802 593.139160,765.853027 593.099182,769.210632 
	C592.899292,786.009216 589.752686,801.600830 573.819214,811.009399 
	C548.399292,826.019775 512.724121,812.989075 505.331177,782.660889 
	C499.687469,759.508789 509.355835,737.914673 527.036926,728.538696 
	C545.892456,718.539917 577.097656,721.390991 587.952087,743.531921 
	C588.750916,745.161438 589.756653,746.719238 589.681824,749.134949 
	C585.149048,751.552856 579.862122,752.345703 574.868347,753.922485 
	C573.088196,754.484619 572.315002,752.894287 571.540100,751.555420 
	C566.641724,743.092163 558.919495,739.672852 549.074036,739.316101 
z"/>
<path fill="#000000" opacity="1.000000" stroke="none" 
	d="
M769.406494,806.494446 
	C760.283691,812.715210 750.378418,815.132568 739.854980,815.264404 
	C730.528687,815.381226 721.197205,815.164062 711.873108,815.350281 
	C707.917480,815.429199 706.667969,813.860474 706.682373,810.037292 
	C706.782776,783.386841 706.778015,756.735596 706.677673,730.085144 
	C706.663391,726.285217 707.883728,724.611572 711.859131,724.768127 
	C724.328918,725.259277 736.832031,724.183838 749.288208,725.647156 
	C770.195129,728.103333 784.059998,744.080078 786.159058,763.701050 
	C787.596985,777.142212 785.439209,789.954529 775.956726,800.587280 
	C774.055664,802.718933 772.045227,804.669067 769.406494,806.494446 
M761.301575,750.247253 
	C754.608337,742.298462 745.772949,739.984741 735.799194,740.264099 
	C724.961853,740.567627 724.370544,738.407654 724.789734,751.181030 
	C725.259033,765.481628 725.009705,779.808716 724.913696,794.123169 
	C724.886902,798.119263 726.221436,800.052246 730.456909,799.649353 
	C735.426453,799.176697 740.457886,799.227722 745.393066,798.547974 
	C754.036865,797.357361 760.791321,792.965942 764.503113,784.953064 
	C769.965515,773.161011 768.926636,761.690552 761.301575,750.247253 
z"/>
<path fill="#000000" opacity="1.000000" stroke="none" 
	d="
M478.778625,598.818848 
	C513.875427,608.063171 522.155334,649.775635 503.345001,672.633545 
	C494.927795,682.861877 483.502228,687.636719 470.522095,688.195801 
	C459.224518,688.682312 447.888947,688.223694 436.572876,688.381042 
	C432.939301,688.431519 431.603912,687.166687 431.617371,683.469116 
	C431.715240,656.506042 431.657928,629.542419 431.650574,602.578979 
	C431.649902,600.180542 431.538208,597.721252 435.029755,597.732422 
	C448.010498,597.773987 460.991486,597.771667 473.971741,597.872070 
	C475.437347,597.883423 476.898743,598.441895 478.778625,598.818848 
M484.851929,666.380676 
	C501.390442,649.983093 495.944397,621.999451 474.857910,614.936646 
	C467.733215,612.550354 460.396820,613.337219 453.116180,613.408936 
	C450.490143,613.434753 449.345123,615.164185 449.345062,617.716370 
	C449.344635,634.671326 449.346313,651.626343 449.321564,668.581299 
	C449.318512,670.681946 450.080231,672.454102 452.248383,672.507568 
	C463.296906,672.779907 474.658478,674.579285 484.851929,666.380676 
z"/>
<path fill="#000000" opacity="1.000000" stroke="none" 
	d="
M336.900940,815.293823 
	C322.975861,815.111328 324.788055,817.003906 324.735931,803.651978 
	C324.641724,779.509521 324.836945,755.365295 324.603119,731.224731 
	C324.553833,726.134033 326.139252,724.523743 331.172882,724.764709 
	C343.796936,725.369080 356.454529,724.248901 369.088104,725.542786 
	C385.553772,727.229004 394.026184,741.274780 391.721863,756.580811 
	C390.004669,767.986816 387.545807,770.629761 374.421722,778.903137 
	C380.859924,790.520081 387.329651,802.193909 394.401001,814.953247 
	C387.567566,815.458374 381.725647,815.581665 375.889282,814.912781 
	C374.073151,814.704651 373.492035,812.732422 372.707123,811.297302 
	C367.676453,802.099365 362.711731,792.865417 357.665009,783.676453 
	C355.494080,779.723633 349.142944,777.710449 345.295654,779.653931 
	C343.294342,780.664917 343.329346,782.560181 343.327179,784.411255 
	C343.317383,792.736328 343.113953,801.068176 343.391541,809.383850 
	C343.544128,813.954651 341.949219,815.925232 336.900940,815.293823 
M361.000977,740.313660 
	C356.669281,740.309753 352.335754,740.382263 348.006561,740.276245 
	C344.908600,740.200439 343.314606,741.442505 343.332367,744.642395 
	C343.362000,749.973328 343.392090,755.306152 343.284637,760.635376 
	C343.223236,763.682861 344.652466,764.789673 347.546265,764.723083 
	C351.542511,764.631042 355.543152,764.747070 359.540863,764.695679 
	C367.827393,764.589233 373.164490,760.377563 373.678314,753.605530 
	C374.234680,746.272034 370.421722,741.983459 361.000977,740.313660 
z"/>
<path fill="#000000" opacity="1.000000" stroke="none" 
	d="
M398.470276,674.261108 
	C389.551788,687.436218 372.561859,694.024780 356.482178,690.798035 
	C334.960083,686.479187 324.758789,674.060181 324.722198,652.084106 
	C324.695282,635.919250 324.826996,619.752808 324.618500,603.590576 
	C324.560455,599.090332 325.884644,597.491943 330.578125,597.577942 
	C343.314362,597.811096 343.323914,597.608704 343.328674,610.274719 
	C343.333984,624.439819 343.233337,638.605652 343.350891,652.769775 
	C343.482788,668.663574 355.642517,677.821594 370.949188,673.720337 
	C379.259735,671.493591 384.621490,664.627075 384.670441,655.677734 
	C384.764313,638.513489 384.849670,621.346191 384.598755,604.185120 
	C384.526855,599.267395 385.827759,597.392944 391.031311,597.582275 
	C405.218689,598.098328 403.197968,595.695007 403.308014,609.720581 
	C403.421753,624.218018 403.272858,638.717407 403.344971,653.215393 
	C403.381226,660.510437 401.904388,667.410400 398.470276,674.261108 
z"/>
<path fill="#000000" opacity="1.000000" stroke="none" 
	d="
M421.676361,778.819275 
	C428.065216,762.325317 434.457703,746.244202 440.537720,730.045898 
	C441.918121,726.368225 443.733826,724.850098 447.744385,724.822998 
	C461.340240,724.730835 461.374298,724.576233 466.326752,737.239441 
	C475.717896,761.252380 485.068756,785.281067 494.420074,809.309509 
	C495.011627,810.829529 496.006378,812.258789 495.621552,814.672974 
	C490.457947,815.816528 485.070343,815.377563 479.714935,814.995605 
	C477.914703,814.867249 477.623840,812.996948 477.088165,811.658203 
	C475.048737,806.561279 473.024872,801.455566 471.144897,796.298462 
	C470.082001,793.382751 468.255219,792.198364 465.120819,792.247620 
	C456.464203,792.383484 447.802094,792.386902 439.146118,792.227783 
	C435.970245,792.169373 434.258972,793.409363 433.226776,796.343323 
	C431.460571,801.363770 429.350616,806.263123 427.574097,811.280334 
	C426.615234,813.988281 425.094879,815.459717 422.099792,815.290283 
	C417.655762,815.038818 413.160461,815.794067 408.079407,814.661682 
	C411.991516,802.422729 417.020630,790.893494 421.676361,778.819275 
M441.743561,772.929688 
	C441.010345,776.152100 443.138214,776.609314 445.480713,776.656372 
	C449.459351,776.736389 453.442627,776.774780 457.420074,776.675354 
	C462.182770,776.556335 463.142517,775.239441 461.566132,770.862183 
	C459.377014,764.783508 457.026154,758.763000 454.740204,752.719299 
	C454.224518,751.355957 453.999023,749.542297 452.108734,749.565002 
	C450.298615,749.586670 449.878479,751.326172 449.357788,752.693298 
	C446.881195,759.195862 444.446930,765.714600 441.743561,772.929688 
z"/>
<path fill="#000000" opacity="1.000000" stroke="none" 
	d="
M162.606567,815.269775 
	C157.711685,815.099976 153.222977,815.836243 148.957352,814.817200 
	C148.149963,812.959167 149.068481,811.629272 149.595261,810.271057 
	C159.937897,783.600525 170.383957,756.969543 180.573639,730.240784 
	C182.133087,726.150085 184.272202,724.631592 188.624069,724.745178 
	C204.024231,725.147095 200.407333,722.878296 205.792084,736.491272 
	C215.455139,760.920166 225.012009,785.390991 234.608749,809.846069 
	C235.148376,811.221191 235.856277,812.564331 235.544601,814.742188 
	C230.327850,815.776428 224.932343,815.367004 219.564880,815.015259 
	C217.774460,814.897888 217.407272,813.075745 216.874222,811.734436 
	C214.847702,806.635132 212.824387,801.530640 210.985489,796.362061 
	C209.943420,793.433044 208.184219,792.200806 205.028763,792.252563 
	C196.375305,792.394531 187.716202,792.406067 179.063293,792.249512 
	C176.045486,792.194885 174.572510,793.414856 173.592041,796.149292 
	C171.741745,801.309631 169.540985,806.343262 167.615051,811.477966 
	C166.784485,813.692444 165.727921,815.374146 162.606567,815.269775 
M182.617111,771.050232 
	C182.343933,772.627075 181.097519,774.054688 182.155716,776.543579 
	C187.919098,776.543579 193.985138,776.734619 200.029968,776.459595 
	C202.871674,776.330322 202.696487,774.152893 201.890350,771.995789 
	C199.279495,765.009277 196.741058,757.995728 194.135132,751.007324 
	C193.741333,749.951416 193.345917,748.737000 191.314880,748.952454 
	C187.740601,755.607117 185.949509,763.231873 182.617111,771.050232 
z"/>
<path fill="#000000" opacity="1.000000" stroke="none" 
	d="
M634.495117,730.549316 
	C635.537476,726.045532 638.204346,724.816284 642.284180,724.770691 
	C655.279480,724.625366 655.224060,724.523560 659.867371,736.555237 
	C668.967102,760.134216 678.147705,783.682007 687.249207,807.260315 
	C688.128113,809.536987 689.468933,811.726807 689.225647,815.178162 
	C684.149841,815.178162 679.081360,815.287903 674.021423,815.127197 
	C671.824646,815.057495 671.242126,812.983032 670.584717,811.289368 
	C668.659607,806.329285 666.694519,801.381165 664.933472,796.362305 
	C663.907898,793.439697 662.198425,792.175476 659.016418,792.232727 
	C650.364624,792.388367 641.705872,792.401794 633.054688,792.231262 
	C629.854919,792.168152 628.161743,793.482361 627.089722,796.331360 
	C625.157410,801.466980 622.988281,806.513367 621.051270,811.647278 
	C620.118774,814.118835 618.721252,815.481506 615.903076,815.302124 
	C611.461853,815.019409 606.962524,815.777527 601.623840,814.546875 
	C612.615723,786.463074 623.486450,758.688721 634.495117,730.549316 
M656.177307,772.845947 
	C653.093872,764.975647 650.993774,756.670776 646.572815,748.848511 
	C645.316772,749.919189 644.648621,750.232239 644.386841,750.750549 
	C640.710205,758.029541 638.478455,765.867737 635.693726,773.491516 
	C634.914307,775.625244 636.029663,776.643616 638.137268,776.649963 
	C643.116150,776.664917 648.096497,776.692871 653.073486,776.588318 
	C654.904480,776.549805 656.234192,775.628418 656.177307,772.845947 
z"/>
<path fill="#000000" opacity="1.000000" stroke="none" 
	d="
M866.868591,775.216187 
	C872.017883,788.399048 877.004456,801.230164 882.249695,814.727173 
	C876.369263,815.753479 871.118774,815.359558 865.905518,815.092957 
	C863.719116,814.981140 863.169983,812.864319 862.516479,811.181519 
	C860.648743,806.372620 858.772888,801.563354 857.072693,796.694092 
	C856.009277,793.648804 854.333008,792.150330 850.862183,792.234009 
	C842.370483,792.438843 833.867310,792.421265 825.375061,792.222290 
	C821.943542,792.141968 820.283691,793.527710 819.194336,796.653442 
	C817.443054,801.678101 815.196655,806.528381 813.372498,811.530151 
	C812.360352,814.305237 810.665100,815.504089 807.750549,815.299438 
	C803.489380,815.000305 799.155212,815.873230 795.086121,814.773071 
	C794.234985,812.911987 795.136536,811.599976 795.671692,810.223450 
	C805.865845,784.002563 816.191345,757.831238 826.134521,731.515503 
	C828.037170,726.479980 830.595276,724.628418 835.960938,724.744568 
	C847.141418,724.986694 847.183472,724.686157 851.157837,734.841919 
	C856.373657,748.169739 861.526123,761.522400 866.868591,775.216187 
M838.388916,749.660828 
	C835.975342,749.899902 835.840027,752.057739 835.222046,753.646973 
	C832.875000,759.682251 830.612671,765.752380 828.451172,771.856445 
	C827.991028,773.156067 826.974243,774.590149 828.596008,776.634827 
	C834.101562,776.634827 840.047791,776.657349 845.993652,776.622925 
	C848.152954,776.610413 849.195435,775.391357 848.408813,773.375305 
	C845.345520,765.524231 843.392212,757.224304 838.388916,749.660828 
z"/>
<path fill="#000000" opacity="1.000000" stroke="none" 
	d="
M545.025635,687.598328 
	C539.244812,688.774536 533.806091,688.231750 528.579041,688.168213 
	C527.018677,685.883972 528.391296,684.252625 529.005493,682.666138 
	C539.466125,655.648743 550.041016,628.675293 560.424988,601.628601 
	C561.603577,598.558777 563.331238,597.583496 566.380188,597.661621 
	C582.597412,598.077087 578.336365,595.078979 584.229309,609.783569 
	C593.764709,633.577026 602.964905,657.504883 612.305359,681.376465 
	C613.079468,683.354858 614.114075,685.280396 613.766052,688.226929 
	C608.506592,688.226929 603.392578,688.292969 598.281555,688.197144 
	C595.965759,688.153687 595.488953,686.076294 594.843750,684.406982 
	C592.983337,679.593384 591.176514,674.758240 589.417664,669.906494 
	C588.617126,667.698242 587.453735,666.054199 584.843872,666.055359 
	C575.203613,666.059692 565.562927,666.015686 555.923340,666.098083 
	C553.422791,666.119446 552.882202,668.306152 552.147278,670.179382 
	C549.902039,675.902893 547.624390,681.613586 545.025635,687.598328 
M575.200134,650.695496 
	C577.223328,650.375000 579.579529,651.484985 581.490356,648.979797 
	C578.805359,640.294983 575.772217,631.555969 571.693726,622.970642 
	C570.290710,623.825256 569.640015,623.983643 569.493225,624.346069 
	C566.502563,631.728149 563.418823,639.078979 560.704407,646.563232 
	C559.709839,649.305603 561.832458,650.506104 564.307739,650.610107 
	C567.629517,650.749756 570.960083,650.679199 575.200134,650.695496 
z"/>
<path fill="#000000" opacity="1.000000" stroke="none" 
	d="
M668.291992,614.370239 
	C671.036438,609.569336 673.608215,605.093445 676.129150,600.589111 
	C676.976013,599.075989 677.872559,597.741638 679.856812,597.744934 
	C685.488159,597.754333 691.119446,597.748230 696.424438,597.748230 
	C697.797485,599.680542 696.641602,600.734558 696.009094,601.802246 
	C687.523682,616.126770 679.058350,630.463806 670.458557,644.719482 
	C668.337830,648.235168 667.107117,651.727051 667.231934,655.954041 
	C667.502197,665.107788 667.206360,674.276978 667.360168,683.436157 
	C667.421509,687.086487 666.100647,688.454651 662.405762,688.364197 
	C646.040405,687.963196 648.176331,690.628906 648.970642,675.222839 
	C649.816467,658.816040 647.163452,644.188110 637.015930,630.786926 
	C631.128418,623.011658 626.878845,613.990662 621.960754,605.490601 
	C620.728760,603.361267 619.243591,601.315491 618.640930,597.922607 
	C625.004944,597.922607 631.189636,597.803589 637.364746,597.994751 
	C639.229675,598.052490 639.719543,600.150024 640.522644,601.570740 
	C645.193359,609.833008 649.829590,618.114807 654.522522,626.364380 
	C655.396301,627.900269 655.992798,629.738525 658.496521,630.721924 
	C662.376526,625.799438 665.147766,620.183350 668.291992,614.370239 
z"/>
<path fill="#000000" opacity="1.000000" stroke="none" 
	d="
M236.694107,731.086670 
	C236.153183,726.350830 237.842499,724.731445 242.294907,724.773315 
	C262.097534,724.959717 281.903931,724.963684 301.706482,724.772644 
	C306.175415,724.729492 307.468567,726.364441 307.374725,730.613220 
	C307.133514,741.529968 307.935486,740.189392 297.622162,740.294495 
	C294.294037,740.328430 290.942078,740.546082 287.642181,740.238342 
	C282.811890,739.787903 281.192322,741.745605 281.237427,746.510498 
	C281.415466,765.314880 281.312195,784.121826 281.308624,802.927856 
	C281.308075,805.756958 281.228119,808.587097 281.284698,811.414795 
	C281.339661,814.160522 280.041718,815.392517 277.347046,815.268616 
	C277.015320,815.253296 276.681519,815.290100 276.348938,815.284851 
	C260.087372,815.028625 262.885529,817.589355 262.733704,802.139526 
	C262.557098,784.167297 262.714111,766.192017 262.660950,748.218323 
	C262.638672,740.683044 262.182037,740.300659 254.809402,740.300354 
	C250.815201,740.300232 246.798828,740.034851 242.832474,740.367004 
	C237.942032,740.776611 236.090073,738.760071 236.686646,734.056213 
	C236.790482,733.237549 236.696777,732.393860 236.694107,731.086670 
z"/>
</svg>